<svg width="43" height="43" viewBox="0 0 43 43" fill="none" xmlns="http://www.w3.org/2000/svg">
<circle cx="21.5" cy="21.5" r="21.5" fill="black"/>
<path fill-rule="evenodd" clip-rule="evenodd" d="M28.7952 13.1973C26.7256 11.1371 23.9756 10 21.0465 10C15.0094 10 10.0931 14.8905 10.0931 20.9002C10.0895 22.8215 10.5944 24.6964 11.554 26.3503L10 32L15.8079 30.4815C17.4049 31.3513 19.2096 31.8075 21.043 31.8111H21.0465C27.0837 31.8111 31.9964 26.9206 32 20.9073C32 17.9951 30.8613 15.2576 28.7952 13.1973ZM21.0465 29.9682H21.043C19.4102 29.9682 17.806 29.5298 16.4095 28.7064L16.0765 28.5104L12.6283 29.4086L13.5485 26.0651L13.3337 25.7229C12.4206 24.2793 11.9408 22.6111 11.9408 20.9002C11.9408 15.9064 16.0264 11.8428 21.0501 11.8428C23.4814 11.8428 25.766 12.7874 27.4847 14.4984C29.2035 16.2129 30.1488 18.487 30.1488 20.9073C30.1488 25.9047 26.0632 29.9682 21.0465 29.9682ZM26.0381 23.1815C25.766 23.046 24.4196 22.3866 24.1689 22.2975C23.9183 22.2048 23.7357 22.162 23.5531 22.4329C23.3704 22.7074 22.8477 23.3205 22.6865 23.5023C22.529 23.6805 22.3678 23.7054 22.0957 23.57C21.82 23.4345 20.9391 23.1458 19.8936 22.2155C19.0807 21.4955 18.5293 20.6008 18.3717 20.3299C18.2106 20.0554 18.3538 19.9093 18.4899 19.7738C18.6152 19.6526 18.7656 19.4566 18.9017 19.2962C19.0378 19.1393 19.0843 19.0253 19.1774 18.8435C19.2669 18.6617 19.2204 18.5013 19.1523 18.3658C19.0843 18.2304 18.5365 16.8866 18.3073 16.3412C18.0853 15.8101 17.8597 15.885 17.6914 15.8743C17.5339 15.8671 17.3512 15.8671 17.1686 15.8671C16.986 15.8671 16.6888 15.9349 16.4382 16.2093C16.1875 16.4802 15.4821 17.1397 15.4821 18.4799C15.4821 19.8202 16.4632 21.1176 16.5993 21.2994C16.7354 21.4776 18.5293 24.2294 21.2757 25.4093C21.9274 25.6909 22.4359 25.8584 22.8333 25.9832C23.4886 26.1899 24.0866 26.1614 24.5592 26.0936C25.0856 26.0152 26.1777 25.4342 26.4069 24.7962C26.6325 24.1617 26.6325 23.6163 26.5645 23.5023C26.4964 23.3882 26.3138 23.3205 26.0381 23.1815Z" fill="white"/>
</svg>
